HIERARCHY
ROOT hip
{
	OFFSET 0.000000 0.000000 0.000000 
	CHANNELS 6 Xposition Yposition Zposition Xrotation Zrotation Yrotation
	JOINT abdomen
	{
		OFFSET 0.000000 3.402643 0.000000 
		CHANNELS 3 Xrotation Zrotation Yrotation
		JOINT chest
		{
			OFFSET 0.000000 8.438565 -0.680529 
			CHANNELS 3 Xrotation Zrotation Yrotation
			JOINT neck
			{
				OFFSET 0.000000 10.207942 -0.272212 
				CHANNELS 3 Xrotation Zrotation Yrotation
				JOINT head
				{
					OFFSET 0.000000 3.130431 0.000000 
					CHANNELS 3 Xrotation Zrotation Yrotation
					End Site
					{
						OFFSET 0.000000 3.130435 0.000000 
					}
				}
			}
			JOINT lCollar
			{
				OFFSET 3.470700 6.669187 -0.816635 
				CHANNELS 3 Yrotation Zrotation Xrotation
				JOINT lShldr
				{
					OFFSET 3.198488 0.000000 0.000000 
					CHANNELS 3 Zrotation Yrotation Xrotation
					JOINT lForeArm
					{
						OFFSET 10.139888 0.000000 0.000000 
						CHANNELS 3 Yrotation Zrotation Xrotation
						JOINT lHand
						{
							OFFSET 8.370511 0.000000 0.000000 
							CHANNELS 3 Zrotation Yrotation Xrotation
							End Site
							{
								OFFSET 4.083176 0.000000 0.000000 
							}
						}
					}
				}
			}
			JOINT rCollar
			{
				OFFSET -3.470700 6.669187 -0.816635 
				CHANNELS 3 Yrotation Zrotation Xrotation
				JOINT rShldr
				{
					OFFSET -3.198488 0.000000 0.000000 
					CHANNELS 3 Zrotation Yrotation Xrotation
					JOINT rForeArm
					{
						OFFSET -10.139888 0.000000 0.000000 
						CHANNELS 3 Yrotation Zrotation Xrotation
						JOINT rHand
						{
							OFFSET -8.370511 0.000000 0.000000 
							CHANNELS 3 Zrotation Yrotation Xrotation
							End Site
							{
								OFFSET -4.083176 0.000000 0.000000 
							}
						}
					}
				}
			}
		}
	}
	JOINT lThigh
	{
		OFFSET 5.308129 -1.633274 1.361059 
		CHANNELS 3 Xrotation Zrotation Yrotation
		JOINT lShin
		{
			OFFSET -2.041588 -20.007561 0.000000 
			CHANNELS 3 Xrotation Zrotation Yrotation
			JOINT lFoot
			{
				OFFSET 0.000000 -19.190928 -1.224953 
				CHANNELS 3 Xrotation Yrotation Zrotation
				End Site
				{
					OFFSET 0.000000 -2.449906 4.627600 
				}
			}
		}
	}
	JOINT rThigh
	{
		OFFSET -5.308129 -1.633274 1.361059 
		CHANNELS 3 Xrotation Zrotation Yrotation
		JOINT rShin
		{
			OFFSET 2.041588 -20.007561 0.000000 
			CHANNELS 3 Xrotation Zrotation Yrotation
			JOINT rFoot
			{
				OFFSET 0.000000 -19.190928 -1.224953 
				CHANNELS 3 Xrotation Yrotation Zrotation
				End Site
				{
					OFFSET 0.000000 -2.449906 4.627600 
				}
			}
		}
	}
}
MOTION
Frames: 9
Frame Time: 0.050000
0.690256 38.112450 8.790748 4.463531 3.074672 -2.484936 20.388334 5.779901 -4.838869 63.226730 0.469606 -1.746215 -0.028617 0.811878 -0.155635 19.231369 0.903542 -0.252972 -7.697542 -4.463222 -1.542243 -92.701187 31.855591 11.893953 -43.074238 -17.327610 24.804525 -9.994476 -9.488800 20.963682 8.077129 10.671801 6.303189 4.242175 23.894783 -15.911640 -8.603414 -5.393666 -22.273315 1.846366 -19.562222 -33.912792 -5.387108 7.204925 5.793227 43.092663 -6.837440 -4.890440 -41.227180 1.145060 -1.932571 -41.124634 -3.277759 3.960618 40.156002 -1.820506 -2.228689 2.705734 -45.229679 6.729106 
0.636758 37.852459 8.997307 5.670725 3.678272 -2.847096 20.748205 6.654583 -5.010103 64.241631 -0.428265 -1.823465 -0.028617 0.811878 -0.155635 22.262453 0.903542 -0.252972 -7.748606 -4.429684 -1.547344 -93.012527 32.175602 11.828107 -45.142498 -17.701187 25.454268 -9.758689 -9.693627 20.691099 7.311745 10.754147 6.384635 2.359977 22.389454 -16.402523 -9.891460 -6.264114 -22.880550 0.785599 -20.785656 -34.972164 -6.722148 6.707976 6.316487 43.810333 -6.883474 -4.978534 -41.766415 1.057946 -1.822964 -43.617645 -3.830093 6.385237 42.417850 0.033057 -2.858603 1.318730 -45.512489 6.311443 
0.588500 37.609737 9.219736 6.900321 4.293071 -3.215976 20.694397 7.531086 -5.184618 65.162949 -1.349821 -1.908424 -0.028617 0.811878 -0.155635 25.102839 0.903542 -0.252972 -7.816637 -4.385004 -1.554140 -93.469574 32.362675 11.667899 -46.780064 -18.028147 26.321089 -9.906505 -9.968102 20.370762 6.552123 10.913319 6.459864 0.463771 21.194349 -16.705753 -10.768799 -6.977524 -23.743263 -0.244037 -22.087742 -36.243660 -7.879149 6.276721 6.858373 44.498478 -6.919744 -5.088386 -42.471039 0.994855 -1.791114 -45.979324 -4.429399 8.780771 44.274960 2.068253 -3.396365 0.000627 -45.683640 5.758389 
0.547413 37.392467 9.437639 8.088530 4.887177 -3.572440 20.342445 8.362147 -5.352116 65.944023 -2.249664 -1.996386 -0.028617 0.811878 -0.155635 27.634403 0.903542 -0.252972 -7.891328 -4.335950 -1.561601 -93.994003 32.439903 11.453177 -48.026039 -18.304087 27.286060 -10.455519 -10.216364 20.121250 5.826223 11.118268 6.528657 -1.311314 20.266779 -16.852188 -11.292714 -7.536860 -24.721687 -1.207596 -23.373812 -37.587635 -9.000569 5.823026 7.367728 45.028240 -6.960696 -5.163892 -43.028648 0.951574 -1.734177 -48.175201 -5.043716 11.059943 45.833542 4.162958 -3.808856 -1.293452 -45.767059 5.091781 
0.515425 37.208843 9.630616 9.171551 5.428687 -3.897346 19.807898 9.100495 -5.502296 66.538193 -3.082386 -2.082641 -0.028617 0.811878 -0.155635 29.738998 0.903542 -0.252972 -7.962375 -4.289289 -1.568698 -94.507477 32.430382 11.223794 -48.919514 -18.524605 28.230240 -11.423323 -10.342546 20.061148 5.162014 11.337944 6.590801 -2.830129 19.564060 -16.872684 -11.520485 -7.945080 -25.676052 -2.070122 -24.549187 -38.864426 -10.023205 5.391989 7.765122 45.469662 -6.992456 -5.237224 -43.535294 1.023758 -1.622418 -50.097549 -5.625348 13.071694 47.021545 6.154097 -4.109241 -2.452708 -45.759487 4.395319 
0.494464 37.067051 9.778270 10.085600 5.885710 -4.171560 19.206301 9.698870 -5.624860 66.898804 -3.802590 -2.162480 -0.028617 0.811878 -0.155635 31.298500 0.903542 -0.252972 -8.019470 -4.251790 -1.574400 -94.931702 32.357201 11.019600 -49.499599 -18.685301 29.034700 -12.827515 -10.250795 20.309046 4.587460 11.541300 6.646080 -3.957540 19.043501 -16.798100 -11.509400 -8.205150 -26.466600 -2.796670 -25.519199 -39.934399 -10.870119 4.963446 8.028626 45.707500 -6.984992 -5.280310 -43.854431 1.185246 -1.515138 -51.623451 -6.154762 14.749886 47.728397 7.888595 -4.326550 -3.282316 -45.718960 3.753364 
0.486241 36.973530 9.863441 10.782104 6.233958 -4.380509 18.629498 10.119222 -5.711605 66.984367 -4.377433 -2.233045 -0.028617 0.811878 -0.155635 32.203949 0.903542 -0.252972 -8.054019 -4.229098 -1.577850 -95.201759 32.237240 10.873110 -49.799061 -18.782370 29.602621 -14.617097 -9.888387 20.924282 4.122351 11.704407 6.694515 -4.577593 18.665503 -16.652048 -11.302386 -8.317101 -26.976387 -3.362468 -26.208248 -40.683434 -11.593197 4.597886 8.146376 45.866856 -6.973897 -5.303392 -44.034927 1.404880 -1.384907 -52.817749 -6.590071 16.005404 48.194118 9.249252 -4.449364 -3.906310 -45.661098 3.208439 
0.491589 36.927761 9.881907 11.273366 6.479583 -4.527884 18.074532 10.360367 -5.762720 66.774025 -4.824309 -2.298870 -0.028617 0.811878 -0.155635 32.383076 0.903542 -0.252972 -8.064262 -4.222368 -1.578872 -95.306404 32.062458 10.787496 -49.825283 -18.814409 29.925613 -16.466717 -9.375155 21.729223 3.753781 11.831824 6.737074 -4.651063 18.402828 -16.429174 -10.884947 -8.269247 -27.179747 -3.783455 -26.616987 -41.099510 -12.241028 4.302816 8.117447 45.966194 -6.965192 -5.330381 -44.046227 1.699190 -1.236514 -53.553864 -6.946075 16.879501 48.163105 10.259840 -4.536252 -4.129508 -45.626129 2.789871 
0.511120 36.927475 9.832683 11.586907 6.636349 -4.621942 17.514753 10.430339 -5.780490 66.252090 -5.173173 -2.366341 -0.028617 0.811878 -0.155635 31.772781 0.903542 -0.252972 -8.050153 -4.231635 -1.577461 -95.247833 31.818594 10.758594 -49.579315 -18.780624 30.017410 -17.982437 -8.874077 22.487005 3.460675 11.935235 6.774963 -4.157908 18.231331 -16.116884 -10.228233 -8.046968 -27.073839 -4.085752 -26.765135 -41.196148 -12.680570 4.011221 7.987113 45.859985 -6.939592 -5.318694 -43.907944 2.030772 -1.056362 -53.968998 -7.246386 17.402784 47.813194 10.942527 -4.578313 -4.069074 -45.591137 2.453908 
